<svg width="42" height="42" viewBox="0 0 42 42" fill="none" xmlns="http://www.w3.org/2000/svg">
<path d="M19.3512 15.2532H21.7408C22.1806 15.2532 22.5373 14.8965 22.5373 14.4567C22.5373 14.0168 22.1806 13.6602 21.7408 13.6602H19.3512C18.9114 13.6602 18.5547 14.0168 18.5547 14.4567C18.5547 14.8965 18.9114 15.2532 19.3512 15.2532Z" fill="white"/>
<path d="M35.2835 36.7622H32.0974V14.3798C32.0974 12.6669 30.7039 11.2734 28.991 11.2734L12.1046 11.2734C10.3918 11.2734 8.99821 12.6669 8.99821 14.3798V36.7622H5.81214C5.37231 36.7622 5.01562 37.1188 5.01562 37.5587C5.01562 37.9985 5.37231 38.3552 5.81214 38.3552H35.2835C35.7233 38.3552 36.08 37.9985 36.08 37.5587C36.08 37.1188 35.7233 36.7622 35.2835 36.7622ZM10.5913 14.3798C10.5913 13.5451 11.2704 12.8665 12.1046 12.8665L28.991 12.8665C29.8253 12.8665 30.5043 13.5452 30.5043 14.3798V36.7622H28.9113V16.8491C28.9113 16.4093 28.5546 16.0526 28.1148 16.0526L12.9809 16.0526C12.541 16.0526 12.1844 16.4093 12.1844 16.8491V36.7622H10.5913V14.3798ZM27.3182 36.7622H13.7774V17.6457L27.3182 17.6457V36.7622Z" fill="white"/>
<path d="M16.1715 6.49147C16.6114 6.49147 16.968 6.13486 16.968 5.69496C16.968 5.25505 16.6114 4.89844 16.1715 4.89844C15.7316 4.89844 15.375 5.25505 15.375 5.69496C15.375 6.13486 15.7316 6.49147 16.1715 6.49147Z" fill="white"/>
<path d="M24.9371 8.08913C25.377 8.08913 25.7337 7.73252 25.7337 7.29261C25.7337 6.85271 25.377 6.49609 24.9371 6.49609C24.4972 6.49609 24.1406 6.85271 24.1406 7.29261C24.1406 7.73252 24.4972 8.08913 24.9371 8.08913Z" fill="white"/>
<path d="M36.0856 19.2376C36.5255 19.2376 36.8821 18.881 36.8821 18.441C36.8821 18.0011 36.5255 17.6445 36.0856 17.6445C35.6457 17.6445 35.2891 18.0011 35.2891 18.441C35.2891 18.881 35.6457 19.2376 36.0856 19.2376Z" fill="white"/>
<path d="M5.01527 24.8118C5.45517 24.8118 5.81179 24.4552 5.81179 24.0153C5.81179 23.5754 5.45517 23.2188 5.01527 23.2188C4.57536 23.2188 4.21875 23.5754 4.21875 24.0153C4.21875 24.4552 4.57536 24.8118 5.01527 24.8118Z" fill="white"/>
<path d="M16.1641 20.0312H17.7571V21.6243H16.1641V20.0312Z" fill="white"/>
<path d="M18.5625 20.0352H20.1555V21.6282H18.5625V20.0352Z" fill="white"/>
<path d="M20.9453 20.0352H22.5383V21.6282H20.9453V20.0352Z" fill="white"/>
<path d="M23.3438 20.0352H24.9368V21.6282H23.3438V20.0352Z" fill="white"/>
<path d="M16.1719 22.4219H17.7649V24.0149H16.1719V22.4219Z" fill="white"/>
<path d="M18.5547 22.4258H20.1477V24.0188H18.5547V22.4258Z" fill="white"/>
<path d="M20.9531 22.4258H22.5462V24.0188H20.9531V22.4258Z" fill="white"/>
<path d="M23.3359 22.4219H24.929V24.0149H23.3359V22.4219Z" fill="white"/>
<path d="M16.1719 24.8125H17.7649V26.4055H16.1719V24.8125Z" fill="white"/>
<path d="M18.5625 24.8125H20.1555V26.4055H18.5625V24.8125Z" fill="white"/>
<path d="M20.9531 24.8164H22.5462V26.4094H20.9531V24.8164Z" fill="white"/>
<path d="M23.3359 24.8125H24.929V26.4055H23.3359V24.8125Z" fill="white"/>
<path d="M16.1641 27.2031H17.7571V28.7962H16.1641V27.2031Z" fill="white"/>
<path d="M18.5625 27.2031H20.1555V28.7962H18.5625V27.2031Z" fill="white"/>
<path d="M20.9453 27.2031H22.5383V28.7962H20.9453V27.2031Z" fill="white"/>
<path d="M23.3438 27.2031H24.9368V28.7962H23.3438V27.2031Z" fill="white"/>
<path d="M16.1719 29.5898H17.7649V31.1829H16.1719V29.5898Z" fill="white"/>
<path d="M18.5547 29.5938H20.1477V31.1868H18.5547V29.5938Z" fill="white"/>
<path d="M20.9531 29.5938H22.5462V31.1868H20.9531V29.5938Z" fill="white"/>
<path d="M23.3359 29.5898H24.929V31.1829H23.3359V29.5898Z" fill="white"/>
<path d="M7.40411 14.4599C7.40411 13.1422 6.33223 12.0703 5.01455 12.0703C3.69687 12.0703 2.625 13.1422 2.625 14.4599C2.625 15.7771 3.69687 16.8494 5.01455 16.8494C6.33223 16.8494 7.40411 15.7771 7.40411 14.4599ZM4.21804 14.4599C4.21804 14.0207 4.57503 13.6633 5.01455 13.6633C5.45407 13.6633 5.81107 14.0207 5.81107 14.4599C5.81107 14.899 5.45407 15.2564 5.01455 15.2564C4.57503 15.2564 4.21804 14.899 4.21804 14.4599Z" fill="white"/>
<path d="M36.8817 25.6094C35.5641 25.6094 34.4922 26.6812 34.4922 27.9989C34.4922 29.3166 35.5641 30.3885 36.8817 30.3885C38.1994 30.3885 39.2713 29.3166 39.2713 27.9989C39.2713 26.6812 38.1994 25.6094 36.8817 25.6094ZM36.8817 28.7954C36.4426 28.7954 36.0852 28.4381 36.0852 27.9989C36.0852 27.5597 36.4426 27.2024 36.8817 27.2024C37.3209 27.2024 37.6783 27.5597 37.6783 27.9989C37.6783 28.4381 37.3209 28.7954 36.8817 28.7954Z" fill="white"/>
<path d="M34.0925 9.68109C35.6295 9.68109 36.8803 8.43032 36.8803 6.89328C36.8803 5.35584 35.6295 4.10547 34.0925 4.10547C32.5555 4.10547 31.3047 5.35584 31.3047 6.89328C31.3047 8.43032 32.5555 9.68109 34.0925 9.68109ZM34.0925 5.6985C34.7513 5.6985 35.2873 6.23448 35.2873 6.89328C35.2873 7.55208 34.7513 8.08806 34.0925 8.08806C33.4337 8.08806 32.8977 7.55208 32.8977 6.89328C32.8977 6.2344 33.4337 5.6985 34.0925 5.6985Z" fill="white"/>
</svg>
