<svg width="17" height="17" viewBox="0 0 17 17" fill="none" xmlns="http://www.w3.org/2000/svg">
<path d="M15.9688 12.3242L15.2188 15.4805C15.125 15.9492 14.75 16.2617 14.2812 16.2617C6.40625 16.2305 0 9.82422 0 1.94922C0 1.48047 0.28125 1.10547 0.75 1.01172L3.90625 0.261719C4.34375 0.167969 4.8125 0.417969 5 0.824219L6.46875 4.23047C6.625 4.63672 6.53125 5.10547 6.1875 5.35547L4.5 6.73047C5.5625 8.88672 7.3125 10.6367 9.5 11.6992L10.875 10.0117C11.125 9.69922 11.5938 9.57422 12 9.73047L15.4062 11.1992C15.8125 11.418 16.0625 11.8867 15.9688 12.3242Z" fill="#573DB8"/>
</svg>
