<svg width="42" height="42" viewBox="0 0 42 42" fill="none" xmlns="http://www.w3.org/2000/svg">
<path d="M36.7589 2.10937L4.89808 2.10938C4.45824 2.10938 4.10156 2.46606 4.10156 2.90589L4.10156 39.5459C4.10156 39.9857 4.45824 40.3424 4.89808 40.3424L36.7589 40.3424C37.1988 40.3424 37.5555 39.9857 37.5555 39.5459V2.90589C37.5555 2.46598 37.1988 2.10937 36.7589 2.10937ZM35.9624 3.70241V5.29545L18.439 5.29545C17.9991 5.29545 17.6424 5.65213 17.6424 6.09196C17.6424 6.53188 17.9991 6.88848 18.439 6.88848L35.9624 6.88848V8.48152L5.6946 8.48152V3.70241L35.9624 3.70241ZM5.6946 38.7493V10.0746L35.9624 10.0746V38.7493L5.6946 38.7493Z" fill="white"/>
<path d="M33.5743 11.668L8.08558 11.668C7.64574 11.668 7.28906 12.0246 7.28906 12.4645V36.3602C7.28906 36.8 7.64574 37.1567 8.08558 37.1567H33.5743C34.0141 37.1567 34.3708 36.8 34.3708 36.3602V12.4645C34.3708 12.0246 34.0141 11.668 33.5743 11.668ZM32.7778 35.5636H8.8821V13.261L32.7778 13.261V35.5636Z" fill="white"/>
<path d="M9.67188 14.0547H11.2649V15.6477H9.67188V14.0547Z" fill="white"/>
<path d="M12.0703 14.0586L29.5938 14.0586V15.6516L12.0703 15.6516V14.0586Z" fill="white"/>
<path d="M12.0625 33.1758H29.586V34.7688H12.0625V33.1758Z" fill="white"/>
<path d="M7.28906 5.29688H8.8821V6.88991H7.28906V5.29688Z" fill="white"/>
<path d="M9.67188 5.29688H11.2649V6.88991H9.67188V5.29688Z" fill="white"/>
<path d="M12.0703 5.29297H13.6633V6.886H12.0703V5.29297Z" fill="white"/>
<path d="M9.67969 33.1758H11.2727V34.7688H9.67969V33.1758Z" fill="white"/>
<path d="M9.67969 16.4453H11.2727V32.3757H9.67969V16.4453Z" fill="white"/>
<path d="M30.3906 14.0547H31.9837V15.6477H30.3906V14.0547Z" fill="white"/>
<path d="M30.3906 33.1719H31.9837V34.7649H30.3906V33.1719Z" fill="white"/>
<path d="M30.3828 16.4453H31.9758V32.3757H30.3828V16.4453Z" fill="white"/>
<path d="M13.6562 24.4108C13.6562 28.3635 16.8723 31.5795 20.8249 31.5795C24.7775 31.5795 27.9936 28.3635 27.9936 24.4108C27.9936 20.4578 24.7775 17.2422 20.8249 17.2422C16.8723 17.2422 13.6562 20.4578 13.6562 24.4108ZM26.4005 24.4108C26.4005 27.4854 23.8994 29.9865 20.8249 29.9865C17.7504 29.9865 15.2493 27.4854 15.2493 24.4108C15.2493 21.3363 17.7505 18.8352 20.8249 18.8352C23.8994 18.8352 26.4005 21.3363 26.4005 24.4108Z" fill="white"/>
<path d="M18.0159 24.5056C17.7048 24.1949 17.2008 24.1949 16.8896 24.5056C16.5785 24.8167 16.5785 25.3211 16.8896 25.6323L19.1422 27.885C19.4533 28.196 19.9578 28.196 20.269 27.885L24.7746 23.3792C25.0858 23.0682 25.0858 22.5638 24.7746 22.2529C24.4639 21.9418 23.9595 21.9418 23.6483 22.2529L19.7057 26.1954L18.0159 24.5056Z" fill="white"/>
</svg>
